<svg width="22" height="22" viewBox="0 0 22 22" fill="none" xmlns="http://www.w3.org/2000/svg">
<path d="M8.46992 14.2799C8.27992 14.2799 8.08992 14.2099 7.93992 14.0599C7.11992 13.2399 6.66992 12.1499 6.66992 10.9999C6.66992 8.60992 8.60992 6.66992 10.9999 6.66992C12.1499 6.66992 13.2399 7.11992 14.0599 7.93992C14.1999 8.07992 14.2799 8.26992 14.2799 8.46992C14.2799 8.66992 14.1999 8.85992 14.0599 8.99992L8.99992 14.0599C8.84992 14.2099 8.65992 14.2799 8.46992 14.2799ZM10.9999 8.16992C9.43992 8.16992 8.16992 9.43992 8.16992 10.9999C8.16992 11.4999 8.29992 11.9799 8.53992 12.3999L12.3999 8.53992C11.9799 8.29992 11.4999 8.16992 10.9999 8.16992Z" fill="#292D32"/>
<path d="M4.59997 17.51C4.42997 17.51 4.24997 17.45 4.10997 17.33C3.03997 16.42 2.07997 15.3 1.25997 14C0.199966 12.35 0.199966 9.65998 1.25997 7.99998C3.69997 4.17998 7.24997 1.97998 11 1.97998C13.2 1.97998 15.37 2.73998 17.27 4.16998C17.6 4.41998 17.67 4.88998 17.42 5.21998C17.17 5.54998 16.7 5.61998 16.37 5.36998C14.73 4.12998 12.87 3.47998 11 3.47998C7.76997 3.47998 4.67997 5.41998 2.51997 8.80998C1.76997 9.97998 1.76997 12.02 2.51997 13.19C3.26997 14.36 4.12997 15.37 5.07997 16.19C5.38997 16.46 5.42997 16.93 5.15997 17.25C5.01997 17.42 4.80997 17.51 4.59997 17.51Z" fill="#292D32"/>
<path d="M10.9999 20.02C9.66994 20.02 8.36994 19.75 7.11994 19.22C6.73994 19.06 6.55994 18.62 6.71994 18.24C6.87994 17.86 7.31994 17.68 7.69994 17.84C8.75994 18.29 9.86994 18.52 10.9899 18.52C14.2199 18.52 17.3099 16.58 19.4699 13.19C20.2199 12.02 20.2199 9.98 19.4699 8.81C19.1599 8.32 18.8199 7.85 18.4599 7.41C18.1999 7.09 18.2499 6.62 18.5699 6.35C18.8899 6.09 19.3599 6.13 19.6299 6.46C20.0199 6.94 20.3999 7.46 20.7399 8C21.7999 9.65 21.7999 12.34 20.7399 14C18.2999 17.82 14.7499 20.02 10.9999 20.02Z" fill="#292D32"/>
<path d="M11.69 15.27C11.34 15.27 11.02 15.02 10.95 14.66C10.87 14.25 11.14 13.86 11.55 13.79C12.65 13.59 13.57 12.67 13.77 11.57C13.85 11.16 14.24 10.9 14.65 10.97C15.06 11.05 15.33 11.44 15.25 11.85C14.93 13.58 13.55 14.95 11.83 15.27C11.78 15.26 11.74 15.27 11.69 15.27Z" fill="#292D32"/>
<path d="M0.999941 21.75C0.809941 21.75 0.619941 21.68 0.469941 21.53C0.179941 21.24 0.179941 20.76 0.469941 20.47L7.93994 13C8.22994 12.71 8.70994 12.71 8.99994 13C9.28994 13.29 9.28994 13.77 8.99994 14.06L1.52994 21.53C1.37994 21.68 1.18994 21.75 0.999941 21.75Z" fill="#292D32"/>
<path d="M13.53 9.21994C13.34 9.21994 13.15 9.14994 13 8.99994C12.71 8.70994 12.71 8.22994 13 7.93994L20.47 0.469941C20.76 0.179941 21.24 0.179941 21.53 0.469941C21.82 0.759941 21.82 1.23994 21.53 1.52994L14.06 8.99994C13.91 9.14994 13.72 9.21994 13.53 9.21994Z" fill="#292D32"/>
</svg>
