<svg width="24" height="24" viewBox="0 0 24 24" fill="none" xmlns="http://www.w3.org/2000/svg">
<g clip-path="url(#clip0_281_8104)">
<path d="M12 1C5.92545 1 1 5.92545 1 12C1 18.0746 5.92545 23 12 23C18.0746 23 23 18.0746 23 12C23 5.92545 18.0746 1 12 1ZM12 21.1339C6.9567 21.1339 2.86607 17.0433 2.86607 12C2.86607 6.9567 6.9567 2.86607 12 2.86607C17.0433 2.86607 21.1339 6.9567 21.1339 12C21.1339 17.0433 17.0433 21.1339 12 21.1339Z" fill="white"/>
<path d="M14.7398 7.20392C14.0032 6.55816 13.0309 6.20459 11.9996 6.20459C10.9684 6.20459 9.99605 6.56062 9.25944 7.20392C8.49337 7.87423 8.07104 8.77535 8.07104 9.7403V9.92691C8.07104 10.0349 8.15944 10.1233 8.26747 10.1233H9.44604C9.55408 10.1233 9.64247 10.0349 9.64247 9.92691V9.7403C9.64247 8.65749 10.7007 7.77602 11.9996 7.77602C13.2985 7.77602 14.3568 8.65749 14.3568 9.7403C14.3568 10.5039 13.8166 11.2037 12.9793 11.5253C12.4588 11.7242 12.0168 12.0729 11.7001 12.5296C11.3784 12.9961 11.2114 13.5559 11.2114 14.1231V14.651C11.2114 14.7591 11.2998 14.8474 11.4079 14.8474H12.5864C12.6945 14.8474 12.7829 14.7591 12.7829 14.651V14.0937C12.7841 13.8553 12.8572 13.6228 12.9926 13.4266C13.1279 13.2304 13.3192 13.0795 13.5416 12.9937C14.9902 12.4363 15.9257 11.1595 15.9257 9.7403C15.9282 8.77535 15.5059 7.87423 14.7398 7.20392ZM11.0175 17.401C11.0175 17.6615 11.1209 17.9113 11.3051 18.0955C11.4893 18.2797 11.7391 18.3832 11.9996 18.3832C12.2601 18.3832 12.5099 18.2797 12.6941 18.0955C12.8783 17.9113 12.9818 17.6615 12.9818 17.401C12.9818 17.1405 12.8783 16.8907 12.6941 16.7065C12.5099 16.5224 12.2601 16.4189 11.9996 16.4189C11.7391 16.4189 11.4893 16.5224 11.3051 16.7065C11.1209 16.8907 11.0175 17.1405 11.0175 17.401Z" fill="white"/>
</g>
<defs>
<clipPath id="clip0_281_8104">
<rect width="22" height="22" fill="white" transform="translate(1 1)"/>
</clipPath>
</defs>
</svg>
