<svg width="24" height="24" viewBox="0 0 24 24" fill="none" xmlns="http://www.w3.org/2000/svg">
<g clip-path="url(#clip0_281_8097)">
<path d="M12.8705 15.071L10.3305 12.561L10.3605 12.531C12.1005 10.591 13.3405 8.36098 14.0705 6.00098H17.0005V4.00098H10.0005V2.00098H8.00049V4.00098H1.00049V5.99098H12.1705C11.5005 7.92098 10.4405 9.75098 9.00049 11.351C8.07049 10.321 7.30049 9.19098 6.69049 8.00098H4.69049C5.42049 9.63098 6.42049 11.171 7.67049 12.561L2.58049 17.581L4.00049 19.001L9.00049 14.001L12.1105 17.111L12.8705 15.071ZM18.5005 10.001H16.5005L12.0005 22.001H14.0005L15.1205 19.001H19.8705L21.0005 22.001H23.0005L18.5005 10.001ZM15.8805 17.001L17.5005 12.671L19.1205 17.001H15.8805Z" fill="white"/>
</g>
<defs>
<clipPath id="clip0_281_8097">
<rect width="24" height="24" fill="white"/>
</clipPath>
</defs>
</svg>
