<svg width="17" height="16" viewBox="0 0 17 16" fill="none" xmlns="http://www.w3.org/2000/svg">
<path d="M15.878 13.4391C15.7373 13.9232 15.051 15.9942 12.1459 15.9942C11.9418 15.9942 8.85694 16.3332 4.18824 11.8296C-0.431628 7.37306 -0.000564544 4.5414 0.0186865 3.90003C0.0191236 3.8853 0.0201436 3.87053 0.0216371 3.85587C0.107693 3.00673 0.340236 2.21705 0.597821 1.7728C1.09165 0.921185 2.07123 0.342979 2.57707 0.152472C3.08292 -0.0380354 3.50182 -0.171591 3.89339 0.527822L5.46987 3.10482C5.62348 3.35585 5.7531 4.1992 5.50387 4.44843C5.39048 4.55707 5.05394 4.88229 4.80029 5.07142C4.54675 5.26047 4.3122 5.46061 4.09671 5.6719C3.88139 5.88318 3.78044 6.05725 3.77361 6.19339C3.75452 6.5742 4.40443 8.04508 6.19074 9.83138C7.89984 11.5405 9.36858 12.1433 9.83276 12.2459C9.96556 12.2752 10.1428 12.1384 10.3548 11.9231C10.5668 11.7079 10.7671 11.4738 10.9559 11.2204C11.1447 10.9669 11.3526 10.7327 11.5797 10.5176C11.8067 10.3023 12.3531 10.3144 12.6075 10.4617L15.4985 12.137C15.9401 12.3528 16.1537 12.4985 15.878 13.4391C15.878 13.4391 16.0991 12.6776 15.878 13.4391Z" fill="white"/>
</svg>
