<svg width="20" height="20" viewBox="0 0 20 20" fill="none" xmlns="http://www.w3.org/2000/svg">
<path d="M15.2 8.4V6.8C15.2 5.52696 14.6943 4.30606 13.7941 3.40589C12.8939 2.50571 11.673 2 10.4 2C9.12696 2 7.90606 2.50571 7.00589 3.40589C6.10571 4.30606 5.6 5.52696 5.6 6.8V8.4C5.17565 8.4 4.76869 8.56857 4.46863 8.86863C4.16857 9.16869 4 9.57565 4 10V16.4C4 16.6101 4.04139 16.8182 4.12179 17.0123C4.2022 17.2064 4.32006 17.3828 4.46863 17.5314C4.6172 17.6799 4.79359 17.7978 4.98771 17.8782C5.18183 17.9586 5.38988 18 5.6 18H15.2C15.4101 18 15.6182 17.9586 15.8123 17.8782C16.0064 17.7978 16.1828 17.6799 16.3314 17.5314C16.4799 17.3828 16.5978 17.2064 16.6782 17.0123C16.7586 16.8182 16.8 16.6101 16.8 16.4V10C16.8 9.57565 16.6314 9.16869 16.3314 8.86863C16.0313 8.56857 15.6243 8.4 15.2 8.4ZM7.2 6.8C7.2 5.95131 7.53714 5.13737 8.13726 4.53726C8.73737 3.93714 9.55131 3.6 10.4 3.6C11.2487 3.6 12.0626 3.93714 12.6627 4.53726C13.2629 5.13737 13.6 5.95131 13.6 6.8V8.4H7.2V6.8ZM12 14C12 14.2122 11.9157 14.4157 11.7657 14.5657C11.6157 14.7157 11.4122 14.8 11.2 14.8H9.6C9.38783 14.8 9.18434 14.7157 9.03431 14.5657C8.88429 14.4157 8.8 14.2122 8.8 14V12.4C8.8 12.1878 8.88429 11.9843 9.03431 11.8343C9.18434 11.6843 9.38783 11.6 9.6 11.6H11.2C11.4122 11.6 11.6157 11.6843 11.7657 11.8343C11.9157 11.9843 12 12.1878 12 12.4V14Z" fill="#112843"/>
</svg>
