<svg width="80" height="80" viewBox="0 0 80 80" fill="none" xmlns="http://www.w3.org/2000/svg">
<path fill-rule="evenodd" clip-rule="evenodd" d="M40 3.33325C19.75 3.33325 3.33334 19.7499 3.33334 39.9999C3.33334 60.2499 19.75 76.6666 40 76.6666C60.25 76.6666 76.6667 60.2499 76.6667 39.9999C76.6667 19.7499 60.25 3.33325 40 3.33325ZM55.8933 33.7999C56.186 33.4654 56.4088 33.0757 56.5486 32.6538C56.6885 32.2319 56.7425 31.7863 56.7076 31.3432C56.6727 30.9001 56.5495 30.4685 56.3453 30.0737C56.1411 29.6789 55.86 29.3289 55.5185 29.0444C55.177 28.7598 54.7821 28.5465 54.357 28.4168C53.9319 28.2871 53.4851 28.2438 53.0429 28.2893C52.6008 28.3349 52.1723 28.4684 51.7825 28.682C51.3927 28.8956 51.0496 29.1851 50.7733 29.5332L36.44 46.7299L29.0233 39.3099C28.3947 38.7027 27.5527 38.3667 26.6787 38.3743C25.8047 38.3819 24.9686 38.7325 24.3506 39.3505C23.7326 39.9685 23.382 40.8046 23.3744 41.6786C23.3668 42.5526 23.7028 43.3946 24.31 44.0232L34.31 54.0233C34.6375 54.3506 35.0297 54.6061 35.4614 54.7734C35.8931 54.9408 36.355 55.0164 36.8176 54.9954C37.2801 54.9744 37.7333 54.8572 38.148 54.6514C38.5628 54.4456 38.9302 54.1556 39.2267 53.7999L55.8933 33.7999Z" fill="#1EDA6D"/>
</svg>
