<svg width="40" height="40" viewBox="0 0 40 40" fill="none" xmlns="http://www.w3.org/2000/svg">
<rect width="40" height="40" rx="8" fill="#FFFAEB"/>
<path d="M20 12C17.879 12.0024 15.8456 12.846 14.3458 14.3458C12.846 15.8456 12.0024 17.879 12 20C12.376 30.588 27.626 30.585 28 20C27.9976 17.879 27.154 15.8456 25.6542 14.3458C24.1545 12.846 22.121 12.0024 20 12ZM20 26C12.071 25.748 12.072 14.251 20 14C27.929 14.252 27.928 25.749 20 26ZM21 17V20C21 20.2652 20.8947 20.5196 20.7071 20.7071C20.5196 20.8946 20.2652 21 20 21C19.7348 21 19.4805 20.8946 19.2929 20.7071C19.1054 20.5196 19 20.2652 19 20V17C19 16.7348 19.1054 16.4804 19.2929 16.2929C19.4805 16.1054 19.7348 16 20 16C20.2652 16 20.5196 16.1054 20.7071 16.2929C20.8947 16.4804 21 16.7348 21 17ZM32 20C31.9981 22.7866 31.0285 25.486 29.257 27.637C29.0881 27.8416 28.8448 27.9707 28.5806 27.996C28.3165 28.0212 28.0531 27.9404 27.8485 27.7715C27.6439 27.6026 27.5148 27.3593 27.4896 27.0951C27.4643 26.831 27.5451 26.5676 27.714 26.363C29.1822 24.5675 29.9843 22.3194 29.9843 20C29.9843 17.6806 29.1822 15.4326 27.714 13.637C27.6304 13.5357 27.5675 13.4189 27.529 13.2933C27.4905 13.1677 27.4771 13.0357 27.4896 12.9049C27.5021 12.7741 27.5402 12.6471 27.6018 12.531C27.6634 12.4149 27.7472 12.3122 27.8485 12.2285C28.0531 12.0596 28.3165 11.9788 28.5806 12.004C28.8448 12.0293 29.0881 12.1584 29.257 12.363C31.0285 14.514 31.9981 17.2134 32 20ZM12.286 26.363C12.455 26.5675 12.5358 26.8307 12.5106 27.0948C12.4855 27.3588 12.3565 27.6021 12.152 27.771C11.9475 27.9399 11.6843 28.0207 11.4203 27.9956C11.1562 27.9705 10.913 27.8415 10.744 27.637C8.98193 25.4819 8.01929 22.7838 8.01929 20C8.01929 17.2162 8.98193 14.5181 10.744 12.363C10.913 12.1585 11.1562 12.0295 11.4203 12.0044C11.6843 11.9793 11.9475 12.0601 12.152 12.229C12.3565 12.3979 12.4855 12.6412 12.5106 12.9053C12.5358 13.1693 12.455 13.4325 12.286 13.637C10.8178 15.4326 10.0157 17.6806 10.0157 20C10.0157 22.3194 10.8178 24.5675 12.286 26.363ZM21 23C21 23.2652 20.8947 23.5196 20.7071 23.7071C20.5196 23.8946 20.2652 24 20 24C19.7348 24 19.4805 23.8946 19.2929 23.7071C19.1054 23.5196 19 23.2652 19 23C19 22.7348 19.1054 22.4804 19.2929 22.2929C19.4805 22.1054 19.7348 22 20 22C20.2652 22 20.5196 22.1054 20.7071 22.2929C20.8947 22.4804 21 22.7348 21 23Z" fill="#F79009"/>
</svg>
