<svg width="22" height="20" viewBox="0 0 22 20" fill="none" xmlns="http://www.w3.org/2000/svg">
<path d="M10.9999 14.3299C8.60992 14.3299 6.66992 12.3899 6.66992 9.99992C6.66992 7.60992 8.60992 5.66992 10.9999 5.66992C13.3899 5.66992 15.3299 7.60992 15.3299 9.99992C15.3299 12.3899 13.3899 14.3299 10.9999 14.3299ZM10.9999 7.16992C9.43992 7.16992 8.16992 8.43992 8.16992 9.99992C8.16992 11.5599 9.43992 12.8299 10.9999 12.8299C12.5599 12.8299 13.8299 11.5599 13.8299 9.99992C13.8299 8.43992 12.5599 7.16992 10.9999 7.16992Z" fill="#292D32"/>
<path d="M11 19.02C7.23996 19.02 3.68996 16.82 1.24996 13C0.189956 11.35 0.189956 8.65998 1.24996 6.99998C3.69996 3.17998 7.24996 0.97998 11 0.97998C14.75 0.97998 18.3 3.17998 20.74 6.99998C21.8 8.64998 21.8 11.34 20.74 13C18.3 16.82 14.75 19.02 11 19.02ZM11 2.47998C7.76996 2.47998 4.67996 4.41998 2.51996 7.80998C1.76996 8.97998 1.76996 11.02 2.51996 12.19C4.67996 15.58 7.76996 17.52 11 17.52C14.23 17.52 17.32 15.58 19.48 12.19C20.23 11.02 20.23 8.97998 19.48 7.80998C17.32 4.41998 14.23 2.47998 11 2.47998Z" fill="#292D32"/>
</svg>
